<svg xmlns="http://www.w3.org/2000/svg" viewBox="0 0 603.11 114.75"><defs><style>.cls-1{fill:#003;}.cls-2{fill:red;}</style></defs><title>nuff_blue</title><g id="Layer_2" data-name="Layer 2"><g id="Layer_1-2" data-name="Layer 1"><path class="cls-1" d="M132.14,54.47A28.78,28.78,0,0,0,126,43.91a25.22,25.22,0,0,0-9.1-6.2,29.73,29.73,0,0,0-11-2.06h-.61a31.21,31.21,0,0,0-13,2.91,32.7,32.7,0,0,0-11.63,8.87h-.31l-.92-10H52V57.74h8.94v55H82.8V74.51a21.46,21.46,0,0,1,1.07-6.65,20.32,20.32,0,0,1,3.06-6,15.28,15.28,0,0,1,4.9-4.29A13.36,13.36,0,0,1,98.41,56a15.6,15.6,0,0,1,5.43.92,11.21,11.21,0,0,1,4.44,3,15.09,15.09,0,0,1,3,5.35,25,25,0,0,1,1.15,8.19v39.32h21.88V69.61A46.42,46.42,0,0,0,132.14,54.47Z"/><path class="cls-1" d="M217.57,112.76H199.05l-.91-9.94h-.31a32.9,32.9,0,0,1-11.63,8.87,31.24,31.24,0,0,1-13,2.91h-.62a29.37,29.37,0,0,1-11.09-2.07,25.35,25.35,0,0,1-9-6.2,28.82,28.82,0,0,1-6.12-10.55,46.53,46.53,0,0,1-2.21-15.15V37.48H166V76.81q0,9.78,4.14,13.61a14.1,14.1,0,0,0,9.94,3.83,13.39,13.39,0,0,0,6.58-1.61,15.25,15.25,0,0,0,4.9-4.28,21.07,21.07,0,0,0,3.06-6,21.48,21.48,0,0,0,1.07-6.66V37.48h21.88Z"/><path class="cls-1" d="M364,96.7q5.5,0,8-1.46a4.29,4.29,0,0,0,2.44-3.75q0-2.59-3.06-4.51t-11.16-3.6Q347.64,80.79,341,74.51a21.12,21.12,0,0,1-6.65-16.06,20.19,20.19,0,0,1,2-8.88,21.37,21.37,0,0,1,5.81-7.27,27.88,27.88,0,0,1,9.49-4.89,43.31,43.31,0,0,1,12.85-1.76,62.59,62.59,0,0,1,31.36,8.26L384.36,60.13a38.79,38.79,0,0,0-9.1-4.59,30.77,30.77,0,0,0-10.48-1.84,12.7,12.7,0,0,0-6.43,1.3,3.91,3.91,0,0,0-2.14,3.45c0,1.43.81,2.67,2.45,3.74s4.79,2.17,9.48,3.29a69.48,69.48,0,0,1,13.39,4.36,32.4,32.4,0,0,1,8.72,5.67,18.09,18.09,0,0,1,4.67,7,24.85,24.85,0,0,1,1.37,8.41A20.69,20.69,0,0,1,387.8,108q-8.49,6.57-23.64,6.58a58.06,58.06,0,0,1-8.79-.69,61.14,61.14,0,0,1-8.72-2,70.28,70.28,0,0,1-8-3,31.75,31.75,0,0,1-6.5-3.83l11.47-16.22a32.6,32.6,0,0,0,9.18,5.59A28.88,28.88,0,0,0,364,96.7Z"/><path class="cls-1" d="M437.73,35.5a49.43,49.43,0,0,1,15.91,2.29,29.59,29.59,0,0,1,11.17,6.58,26.48,26.48,0,0,1,6.58,10.25,39.64,39.64,0,0,1,2.14,13.46v44.68H455l-.61-7.34h-.31a24.61,24.61,0,0,1-9.25,6.88,32.46,32.46,0,0,1-13.09,2.45,34.22,34.22,0,0,1-12.62-2.14A27.75,27.75,0,0,1,410,107a23.08,23.08,0,0,1-5.51-8,24.77,24.77,0,0,1-1.84-9.41q0-12.39,8.8-18.74t24.41-6.35c2.75,0,5.45.11,8.1.31s5.21.51,7.65.92V63.8a9.59,9.59,0,0,0-3.21-7.57Q445.23,53.4,438,53.4a41.42,41.42,0,0,0-11.4,1.68,44.67,44.67,0,0,0-12,5.66L405,43.6q3.36-1.68,7.34-3.21a72.26,72.26,0,0,1,8.26-2.6,85.19,85.19,0,0,1,8.65-1.68A60.82,60.82,0,0,1,437.73,35.5Zm-2.14,63a18.41,18.41,0,0,0,6-1,14.27,14.27,0,0,0,5.12-3.06,15.78,15.78,0,0,0,3.6-5.13,17.1,17.1,0,0,0,1.37-7v-.46q-2.75-.6-6.12-1a63.46,63.46,0,0,0-7-.38q-13.94,0-13.93,9A8.23,8.23,0,0,0,427.48,96Q430.39,98.53,435.59,98.53Z"/><path class="cls-1" d="M485.27,112.76h21.88V37.48H485.27Z"/><path class="cls-1" d="M595.21,92.55V1.84H573.33V43.6H573q-8.87-8-21.72-8a32.86,32.86,0,0,0-25.09,11.09,37.17,37.17,0,0,0-7.35,12.55,46.73,46.73,0,0,0-2.6,15.83A46.75,46.75,0,0,0,518.86,91a37.12,37.12,0,0,0,7.35,12.54,32.82,32.82,0,0,0,25.09,11.1,32.92,32.92,0,0,0,13.54-2.76,31.83,31.83,0,0,0,10.78-7.8h.31l.76,8.72h10.67v0h15.75V92.55Zm-26.7-3.89a17,17,0,0,1-12.78,5.13A16.74,16.74,0,0,1,543,88.66q-4.9-5.11-4.9-13.54T543,61.51a16.62,16.62,0,0,1,12.69-5.21,16.9,16.9,0,0,1,12.78,5.21q5,5.19,5,13.61T568.51,88.66Z"/><path class="cls-2" d="M508.68,15a11.36,11.36,0,0,1-3.44,8.34,12.1,12.1,0,0,1-8.95,3.44,12.36,12.36,0,0,1-9-3.44A11.21,11.21,0,0,1,483.74,15a11.47,11.47,0,0,1,3.52-8.41,12.22,12.22,0,0,1,9-3.52,12,12,0,0,1,8.95,3.52A11.63,11.63,0,0,1,508.68,15Z"/><polygon class="cls-2" points="29.29 3.45 56.44 3.45 27.15 69.97 0 69.97 29.29 3.45"/><path class="cls-1" d="M333.32,37.48h-22.7V30.6a15.71,15.71,0,0,1,1.45-7.42c1-1.78,2.78-2.68,5.43-2.68a23,23,0,0,1,5.43.69q2.83.69,5.28,1.45l4-20.65c-2.66-.51-5.56-1-8.72-1.38A70.13,70.13,0,0,0,314.75,0q-13,0-19.51,7.88t-6.5,22.87v6.73H261.35V33.2q0-6.27,1.3-9.49t5.89-3.21a33.38,33.38,0,0,1,6.12.61q3.21.62,6.27,1.38l4.13-20.35A79.73,79.73,0,0,0,276.5.54,65,65,0,0,0,268.08,0q-8.26,0-13.69,2.52a23.32,23.32,0,0,0-8.8,6.89,26.52,26.52,0,0,0-4.74,10,50.94,50.94,0,0,0-1.38,12.09v6h-11v20.2h11v55.08h21.88V57.68h27.39v55.08h21.88V57.68h13.8Z"/></g></g></svg>
