<?xml version="1.0" encoding="utf-8"?>
<!-- Generator: Adobe Illustrator 24.3.0, SVG Export Plug-In . SVG Version: 6.00 Build 0)  -->
<svg version="1.1" id="Layer_1" xmlns="http://www.w3.org/2000/svg" xmlns:xlink="http://www.w3.org/1999/xlink" x="0px" y="0px"
	 viewBox="0 0 742.6 179.6" style="enable-background:new 0 0 742.6 179.6;" xml:space="preserve">
<style type="text/css">
	.st0{fill:#FFFFFF;}
	.st1{fill:#FEE131;}
	.st2{fill:#E5626D;}
</style>
<path class="st0" d="M234.6,38.7c9.8,8.4,14.7,20.5,14.7,36.2c0,15-4.9,26.6-14.7,34.9c-9.8,8.2-23.8,12.4-42.1,12.4h-29.2v51H125
	V26.1h67.5C210.8,26.1,224.8,30.3,234.6,38.7z M204.9,89.3c3.9-3.2,5.9-8.1,5.9-14.8c0-6.5-2-11.4-5.9-14.6
	c-3.9-3.2-10.1-4.8-18.4-4.8h-23.2v39h23.2C194.8,94.1,200.9,92.5,204.9,89.3z"/>
<path class="st0" d="M366.1,128.4h-76c1.2,7,3.7,12.1,7.7,15.4c3.9,3.3,9.2,4.9,15.7,4.9c5.5,0,10-1,13.5-3.1c3.5-2.1,5.8-5.1,7-9.1
	l30.7,9.8c-3.1,9.5-9.2,16.8-18.2,21.7c-9,5-20,7.5-33.1,7.5c-19.5,0-34.4-5-44.7-15.2c-10.3-10.1-15.5-24.4-15.5-42.8
	c0-18.4,5-32.7,15.2-42.8c10.1-10.1,24.4-15.2,43-15.2c18,0,31.8,4.9,41.3,14.8c9.6,9.9,14.4,23.7,14.4,41.6
	C367.2,121,366.8,125.1,366.1,128.4z M289.9,107.9h41.9c-1.8-14.6-8.6-21.8-20.5-21.8C299.2,86.1,292.1,93.3,289.9,107.9z"/>
<path class="st0" d="M480.6,69.8c7,6.8,10.5,16.6,10.5,29.2v74.2h-37.9v-63.7c0-7.6-1.4-13-4.1-16.2c-2.8-3.2-6.7-4.8-11.7-4.8
	c-5.9,0-10.8,2.1-14.5,6.4c-3.7,4.2-5.6,10.7-5.6,19.5v58.8h-37.9V61.8h33.9l1.1,21.4c3.6-7.9,8.6-13.8,15.2-17.7
	c6.5-3.9,14.2-5.9,23-5.9C464.3,59.5,473.6,63,480.6,69.8z"/>
<path class="st0" d="M599.8,69.1c8.5,6.4,13.7,14.7,15.8,25l-35.2,11.6c-1.5-12.8-7.2-19.2-17.2-19.2c-14.7,0-22.1,10.5-22.1,31.4
	c0,20.4,7.4,30.5,22.1,30.5c10.5,0,16.7-6,18.5-18l34.1,10.9c-1.6,10.1-7,18.3-16.2,24.6c-9.1,6.3-21.2,9.5-36.2,9.5
	c-19.3,0-34.2-5-44.6-15.2c-10.4-10.1-15.6-24.4-15.6-42.8c0-18.3,5.2-32.5,15.5-42.7c10.3-10.2,24.7-15.3,43.1-15.3
	C578.7,59.5,591.4,62.7,599.8,69.1z"/>
<path class="st0" d="M629.1,44.5c-3.5-2.9-5.2-7.5-5.2-13.7c0-6.4,1.7-11,5.2-13.9c3.5-2.9,9.1-4.3,16.8-4.3
	c7.7,0,13.3,1.4,16.8,4.3c3.5,2.9,5.2,7.5,5.2,13.9c0,6.2-1.7,10.8-5.2,13.7c-3.5,2.9-9.1,4.3-16.8,4.3
	C638.2,48.8,632.6,47.4,629.1,44.5z M664.9,173.2H627V61.8h37.9V173.2z"/>
<path class="st1" d="M59.9,52.6l-42.4-6.8l1-6.5c0-0.3,3.3,0,7.3,0.7l27.9,4.4c4,0.6,7.2,1.4,7.2,1.7L59.9,52.6z"/>
<path class="st0" d="M720.4,134.6c0,5.1,0.7,8.6,2.2,10.7c1.5,2.1,4.2,3.1,8,3.1c3.6,0,7.4-0.7,11.4-2l-2.5,23.4
	c-2.7,1.6-6.2,3-10.5,4c-4.3,1-8.5,1.6-12.7,1.6c-11.9,0-20.5-2.8-25.8-8.4c-5.3-5.6-8-14.5-8-26.9V14.5h37.9V134.6z"/>
<polygon class="st1" points="43.2,160.5 18.2,179.5 0.8,153.8 17.1,51.5 59.5,58.3 "/>
<g>
	<path class="st2" d="M56.9,3.6L36.4,0.3c-6.1-1-11.9,3.9-13,10.8l-2.8,17.5c-0.5,2.8,1.2,5.5,3.7,5.9l33.6,5.4
		c2.5,0.4,4.9-1.6,5.3-4.4L66,17.9C67.1,11,63,4.6,56.9,3.6z"/>
</g>
</svg>
